# xmcd
# 
# Track frame offsets:
#     150
#     17012
#     33692
#     50759
#     67084
#     82659
#     94716
#     112137
#     129159
#     144028
#     158544
#     175324
#     190220
#     205358
#     219511
#     235701
# 
# Disc length: 3457
# 
# Revision: 3
# Processed by: cddbd v1.5.2PL0 Copyright (c) Steve Scherf et al.
# Submitted via: BonkEnc v1.0.6
# 
DISCID=d60d7f10
DTITLE=Bruno and Marrone - De Volta Aos Bares - Ao Vivo
DYEAR=2009
DGENRE=Sertanejo
TTITLE0=Não Tente Me Impedir
TTITLE1=Cavalgada
TTITLE2=Flashback De Nós Dois
TTITLE3=Pode Ir Embora
TTITLE4=Sou Eu
TTITLE5=Onde Você Está?
TTITLE6=Te Amo Tanto
TTITLE7=Duas Vezes Você
TTITLE8=Quem Tá Bebo, Quem Tá Bão?
TTITLE9=Amor Não Vai Faltar
TTITLE10=Quando Você Quiser
TTITLE11=Aline - As Paredes Azuis
TTITLE12=Desliga
TTITLE13=Fiel Até Debaixo D'água
TTITLE14=Chamego Bom
TTITLE15=Favo De Mel
EXTD=YEAR: 2009
EXTT0=
EXTT1=
EXTT2=
EXTT3=
EXTT4=
EXTT5=
EXTT6=
EXTT7=
EXTT8=
EXTT9=
EXTT10=
EXTT11=
EXTT12=
EXTT13=
EXTT14=
EXTT15=
PLAYORDER=
